<?xml version="1.0" standalone="no"?>
<!DOCTYPE svg PUBLIC "-//W3C//DTD SVG 20010904//EN"
 "http://www.w3.org/TR/2001/REC-SVG-20010904/DTD/svg10.dtd">
<svg version="1.0" xmlns="http://www.w3.org/2000/svg"
 width="788.000000pt" height="1080.000000pt" viewBox="0 0 788.000000 1080.000000"
 preserveAspectRatio="xMidYMid meet">

<g transform="translate(0.000000,1080.000000) scale(0.100000,-0.100000)"
fill="#000000" stroke="none">
<path d="M4015 10062 c-37 -3 -45 -6 -30 -12 16 -6 13 -9 -20 -14 -22 -4 -60
-13 -85 -21 -25 -8 -75 -15 -112 -15 -37 0 -87 -4 -110 -10 -24 -5 -88 -18
-143 -29 -97 -19 -146 -31 -290 -70 -127 -35 -141 -38 -168 -35 -15 1 -27 -1
-27 -6 0 -5 -7 -7 -16 -3 -10 4 -17 -1 -20 -14 -4 -13 -20 -25 -45 -32 -35
-11 -88 -62 -89 -87 0 -5 -26 -36 -57 -69 -31 -33 -64 -79 -75 -102 -10 -23
-23 -45 -28 -48 -18 -11 -51 -86 -60 -134 -5 -25 -13 -73 -19 -107 -14 -76
-20 -274 -9 -274 4 0 8 -14 8 -30 0 -17 4 -38 9 -48 9 -15 22 -61 25 -87 2
-10 20 -53 36 -85 7 -15 30 -116 50 -220 5 -30 20 -102 31 -159 17 -86 19
-105 8 -112 -11 -7 -11 -9 1 -9 8 0 27 -11 41 -23 24 -22 26 -31 32 -133 3
-60 3 -102 0 -94 -13 35 -24 40 -52 26 -14 -8 -44 -30 -66 -50 -35 -31 -40
-41 -39 -77 2 -50 30 -90 72 -105 18 -5 37 -15 44 -22 13 -13 48 -16 48 -4 0
4 -15 17 -34 29 -46 30 -53 73 -20 131 23 39 54 57 54 30 0 -6 5 -64 12 -127
8 -80 14 -108 19 -90 3 15 5 39 2 55 -2 16 -6 92 -10 169 -4 113 -1 166 16
277 12 75 21 175 21 222 0 111 15 180 49 219 16 18 44 58 65 90 20 32 43 60
51 63 8 3 17 14 20 25 10 29 25 23 25 -11 0 -16 2 -30 5 -30 15 0 85 52 85 63
0 7 -3 8 -8 2 -10 -14 -42 -18 -42 -5 0 5 7 10 16 10 9 0 14 6 11 13 -2 6 0
21 5 32 8 19 8 19 -5 3 -18 -23 -25 -23 -23 0 0 10 11 28 22 40 18 20 28 22
59 16 30 -5 37 -4 33 7 -3 8 1 19 8 26 14 15 28 17 20 4 -3 -5 8 -11 24 -13
21 -3 27 -1 20 6 -17 17 -12 23 26 31 30 5 39 3 50 -14 8 -11 30 -23 49 -27
19 -3 35 -10 35 -15 0 -5 25 -6 55 -4 38 4 64 1 85 -10 36 -19 38 -19 36 2 -1
13 11 19 50 25 28 4 61 11 74 16 18 7 35 3 67 -14 24 -12 43 -18 43 -14 0 5 7
7 16 3 9 -3 20 0 24 7 7 11 11 10 24 -3 9 -8 16 -20 16 -26 0 -14 17 -14 22
-1 3 10 40 16 121 19 22 0 36 5 32 11 -3 6 1 7 10 3 13 -4 14 -8 4 -14 -10 -6
-10 -13 -1 -33 6 -14 16 -26 22 -26 6 0 8 -4 5 -10 -3 -5 2 -10 12 -11 11 0
13 -2 5 -6 -7 -3 -25 -16 -39 -29 l-25 -23 25 -23 c35 -32 50 -44 62 -47 11
-2 26 -35 30 -66 3 -18 -3 -20 -48 -22 -124 -4 -134 -7 -154 -35 -10 -16 -25
-28 -33 -28 -9 0 -16 -10 -17 -22 -2 -23 -21 -40 -35 -32 -5 3 -6 -6 -2 -21 5
-20 1 -31 -15 -46 -12 -11 -19 -24 -16 -30 4 -5 -1 -9 -9 -9 -9 0 -16 -6 -16
-12 0 -9 -4 -8 -10 2 -8 11 -9 9 -8 -12 1 -16 5 -28 9 -28 3 0 4 -11 1 -25 -2
-14 -7 -23 -11 -21 -14 9 -5 -110 11 -139 9 -16 29 -55 44 -85 42 -85 74 -120
108 -120 29 0 30 6 11 53 -5 12 -2 17 10 17 12 0 15 5 11 16 -4 10 1 25 10 35
14 16 20 16 63 3 48 -14 299 -36 314 -27 4 2 7 0 7 -5 0 -16 69 -52 86 -45 9
3 20 0 26 -8 8 -11 9 -10 4 4 -3 10 -9 44 -12 75 -3 32 -7 68 -10 80 -3 17 -1
21 7 16 9 -5 10 -1 4 17 -12 36 -9 93 7 124 15 28 13 47 -17 170 -3 11 -3 32
1 48 18 85 75 -53 69 -168 -2 -38 6 -160 16 -270 20 -195 20 -347 2 -393 -9
-24 -9 -24 -40 13 -17 20 -34 32 -37 27 -3 -4 4 -15 15 -23 11 -8 25 -23 31
-34 11 -19 10 -19 -15 -3 -22 15 -26 16 -31 2 -3 -9 -6 -27 -6 -41 0 -22 -3
-24 -32 -18 -18 3 -42 10 -53 14 -80 32 -108 34 -87 8 9 -10 2 -13 -33 -13
-25 -1 -45 4 -45 9 0 6 -6 3 -13 -7 -12 -16 -14 -16 -26 -2 -8 9 -21 16 -31
16 -25 0 -56 31 -64 63 -11 47 -75 136 -119 167 -23 16 -47 34 -53 39 -18 15
-59 18 -58 4 1 -7 2 -22 3 -33 0 -11 8 -20 16 -20 53 0 102 -59 90 -107 -5
-22 -10 -23 -80 -22 -41 1 -81 -3 -88 -9 -16 -14 -92 -18 -134 -8 -18 4 -34 3
-37 -3 -4 -6 -20 -2 -41 10 -35 21 -105 23 -112 4 -5 -15 53 -37 89 -33 19 2
33 -2 35 -9 5 -13 -19 -18 -69 -14 -24 2 -28 -2 -28 -23 0 -19 -5 -26 -19 -26
-14 0 -18 -5 -14 -20 3 -11 0 -20 -6 -20 -6 0 -11 -5 -11 -10 0 -6 11 -3 25 6
17 11 25 12 25 4 0 -8 17 -10 57 -8 38 3 67 -1 87 -10 16 -9 51 -14 76 -13 25
1 57 -2 71 -7 22 -8 19 -10 -29 -21 -29 -6 -67 -11 -85 -11 -29 -1 -30 -2 -14
-14 24 -18 21 -26 -9 -26 -14 0 -33 -4 -43 -10 -25 -13 -141 9 -141 27 0 10
-14 13 -52 11 l-53 -3 3 39 c4 37 3 38 -21 32 -15 -3 -27 -1 -29 5 -5 14 -45
-2 -80 -33 -28 -23 -39 -46 -16 -32 7 5 9 2 6 -7 -3 -8 -9 -21 -13 -30 -9 -24
48 -46 85 -32 21 8 35 6 65 -8 21 -11 50 -19 64 -19 25 1 25 1 7 15 -18 14
-13 15 55 15 41 0 92 -5 114 -12 22 -6 83 -12 135 -12 89 -1 95 -2 92 -21 -5
-26 -1 -23 -61 -44 -28 -10 -48 -21 -44 -24 12 -13 103 -7 162 9 55 16 61 16
76 0 21 -20 18 -21 64 10 28 18 46 23 64 19 25 -7 26 -9 23 -75 -2 -37 -7 -73
-11 -80 -13 -21 -14 -81 -3 -100 9 -14 8 -22 -4 -33 -9 -9 -18 -14 -21 -11 -3
3 -24 -3 -47 -14 -24 -11 -58 -18 -78 -16 -20 1 -39 -2 -43 -7 -4 -7 -12 -4
-22 5 -8 9 -23 16 -33 16 -14 0 -14 -3 -4 -15 24 -29 1 -27 -24 1 -14 16 -26
24 -26 17 0 -6 5 -15 11 -19 8 -4 7 -9 -2 -15 -12 -8 -12 -10 0 -18 9 -6 10
-11 2 -15 -6 -4 -21 0 -33 8 -30 21 -41 20 -33 -4 3 -11 0 -26 -7 -34 -11 -12
-17 -11 -40 5 -22 16 -28 17 -35 6 -13 -22 -41 -27 -75 -12 -38 15 -68 2 -69
-31 0 -15 -2 -15 -10 5 -5 13 -7 33 -3 44 5 17 3 19 -15 14 -12 -3 -19 -1 -15
4 3 5 1 9 -4 9 -6 0 -12 -7 -16 -15 -6 -17 -36 -21 -36 -5 0 6 5 10 10 10 6 0
10 16 10 35 0 47 -15 44 -39 -7 -12 -25 -20 -35 -21 -24 0 16 -2 17 -16 5 -22
-18 -44 -20 -44 -3 0 8 -4 14 -10 14 -5 0 -10 -7 -10 -15 0 -23 -31 -18 -37 5
-6 21 -6 21 -19 1 -8 -11 -13 -25 -12 -32 2 -6 -3 -14 -9 -16 -7 -3 -13 0 -13
6 0 7 -10 9 -27 5 -24 -6 -26 -5 -16 7 15 18 4 34 -22 34 -19 -1 -35 12 -35
28 0 5 5 5 10 2 6 -3 10 0 10 7 1 7 16 -4 34 -24 33 -37 33 -38 55 -19 11 10
21 23 21 29 0 12 -40 38 -52 34 -7 -2 -12 13 -9 30 0 4 -10 10 -24 14 -14 3
-25 10 -25 14 0 16 -82 4 -91 -13 -9 -15 -11 -15 -29 1 -11 9 -20 23 -20 30 0
14 -38 51 -52 52 -13 0 -9 -38 5 -43 9 -3 9 -9 -1 -26 -27 -46 21 -133 134
-248 50 -51 95 -93 99 -93 5 0 16 -6 24 -14 9 -8 38 -21 66 -31 27 -9 88 -42
135 -74 47 -31 93 -60 103 -64 9 -3 17 -11 17 -17 0 -5 9 -10 19 -10 12 0 23
-9 27 -22 4 -13 12 -27 18 -31 6 -5 1 -7 -14 -6 -14 1 -32 1 -40 0 -13 -1 -13
-2 0 -11 12 -8 13 -12 1 -19 -9 -6 5 -18 53 -42 36 -18 66 -37 66 -41 0 -5 9
-8 20 -8 13 0 18 -5 13 -15 -4 -13 2 -15 42 -11 37 3 45 1 41 -10 -3 -8 -1
-14 4 -14 18 0 10 -20 -7 -20 -17 -1 -16 -2 1 -15 16 -12 17 -17 6 -30 -7 -8
-19 -15 -26 -15 -19 0 -18 -16 2 -24 8 -3 13 -10 9 -16 -8 -14 54 0 82 18 13
8 21 18 18 22 -3 5 8 11 25 15 17 4 28 10 26 13 -6 11 12 52 23 52 6 0 21 -12
34 -26 l24 -25 41 21 c23 12 42 27 42 32 0 6 9 8 20 5 13 -3 21 1 25 14 4 10
13 19 21 19 13 0 12 -6 -5 -33 -11 -19 -18 -37 -15 -40 3 -3 -4 -11 -16 -17
-18 -10 -21 -10 -14 2 4 7 -2 5 -13 -4 -11 -10 -28 -18 -38 -18 -14 0 -16 -3
-8 -11 13 -13 6 -37 -14 -58 -8 -7 -11 -22 -7 -34 5 -16 3 -19 -10 -14 -9 4
-16 2 -16 -3 0 -13 12 -13 46 0 15 6 29 9 31 7 8 -8 -10 -37 -23 -37 -17 0
-19 -26 -1 -33 8 -4 1 -16 -20 -36 -18 -17 -33 -39 -33 -50 0 -10 -7 -24 -15
-31 -8 -7 -15 -10 -15 -6 0 4 -11 -1 -25 -10 -14 -9 -25 -20 -25 -25 0 -14 26
-11 39 5 7 8 21 12 33 8 l21 -5 -20 -17 c-11 -9 -24 -27 -28 -41 -4 -13 -11
-28 -15 -34 -12 -15 -21 -95 -11 -95 13 0 93 92 122 141 15 24 59 91 99 148
58 84 79 124 105 205 46 143 48 151 29 193 -10 21 -18 41 -19 46 -2 4 -4 10
-5 15 -1 4 -1 19 0 35 1 15 -4 27 -10 27 -9 0 -9 4 -3 13 5 6 8 50 7 97 -2 47
-1 112 2 144 6 59 8 61 85 137 44 42 79 84 79 93 0 8 9 30 19 48 11 17 18 35
15 40 -3 4 -1 8 5 8 22 0 48 122 44 203 -4 66 -3 77 11 77 9 0 16 6 16 14 0 8
6 16 13 19 7 2 8 8 3 13 -5 5 -11 4 -13 -3 -3 -7 -12 -13 -20 -13 -11 0 -14 7
-9 26 7 25 5 26 -21 19 l-28 -7 22 24 c18 19 20 27 11 36 -9 9 -9 12 -1 12 7
0 18 -16 25 -36 l13 -36 13 28 13 29 -4 -32 c-3 -26 0 -33 14 -33 26 0 33 18
34 80 0 53 1 54 33 64 26 7 34 16 43 49 16 59 3 128 -31 165 -24 27 -28 39
-28 93 0 33 3 57 7 52 4 -4 23 -55 41 -112 29 -89 36 -100 44 -81 7 14 6 65
-2 152 -14 154 -30 188 -89 188 l-35 0 6 68 c11 105 25 179 57 288 16 56 29
114 29 130 0 16 6 38 14 49 13 19 23 63 32 131 2 20 -2 36 -11 44 -20 17 -19
40 3 40 16 1 16 2 -1 14 -19 14 -7 33 13 21 6 -3 10 -2 10 4 0 6 -10 16 -22
23 -23 12 -23 12 7 19 l30 7 -28 1 c-35 1 -28 16 11 24 29 6 50 41 31 53 -15
9 1 25 46 44 24 10 46 23 49 29 7 10 -83 -18 -126 -39 -19 -10 -21 -10 -10 1
6 7 12 23 12 36 0 12 8 44 18 70 36 91 68 236 55 240 -8 3 -13 22 -13 48 0 24
-5 47 -10 50 -6 4 -8 15 -5 26 8 23 -22 27 -31 4 -4 -8 -10 -12 -15 -9 -5 3
-26 -4 -46 -16 -45 -27 -56 -17 -18 16 l30 25 -26 -5 c-26 -6 -27 -5 -32 57
-6 66 -24 152 -26 127 -1 -11 -7 -8 -22 10 -21 25 -21 25 -16 2 8 -35 -15 -22
-35 20 -15 31 -64 78 -81 78 -3 0 1 -12 9 -27 7 -16 14 -32 14 -36 0 -16 -21
5 -30 29 -6 14 -18 28 -27 31 -10 4 -29 17 -43 30 -14 13 -28 23 -31 23 -4 0
-10 11 -13 25 -4 14 -11 25 -16 25 -14 0 -12 -13 3 -29 10 -12 8 -12 -8 -6
-11 5 -40 10 -65 11 -25 1 -61 7 -80 13 -40 13 -229 52 -239 49 -3 -1 -28 -4
-56 -6z m-33 -65 c-24 -7 -36 -7 -44 1 -9 9 -1 12 33 11 l44 -1 -33 -11z m578
-132 c0 -8 -2 -15 -4 -15 -2 0 -6 7 -10 15 -3 8 -1 15 4 15 6 0 10 -7 10 -15z
m112 -45 c8 -48 5 -61 -10 -33 -17 33 -23 85 -10 81 7 -3 16 -24 20 -48z
m-1657 -40 c-28 -12 -37 -12 -30 0 3 6 16 10 28 9 21 0 21 -1 2 -9z m1320
-1390 c16 -7 13 -9 -17 -9 -21 -1 -38 4 -38 9 0 12 27 12 55 0z m-85 -70 c0
-5 -7 -10 -15 -10 -8 0 -15 5 -15 10 0 6 7 10 15 10 8 0 15 -4 15 -10z m-70
-19 c0 -5 3 -16 6 -25 4 -10 1 -16 -9 -16 -20 0 -30 17 -23 35 6 16 26 21 26
6z m205 -17 c0 -12 -8 -20 -23 -22 -21 -3 -21 -2 -10 23 13 29 33 28 33 -1z
m-158 -70 c-3 -3 -12 -4 -19 -1 -8 3 -5 6 6 6 11 1 17 -2 13 -5z m21 -511 c7
-10 18 -17 24 -15 5 1 8 -3 5 -10 -2 -7 2 -21 10 -30 17 -19 8 -47 -10 -29 -6
6 -19 11 -30 11 -10 0 -15 5 -12 10 6 9 -14 14 -43 11 -6 -1 -17 10 -24 24
-12 27 -24 32 -31 13 -2 -7 -8 -10 -12 -6 -4 4 3 16 16 27 29 24 87 21 107 -6z
m449 5 c-3 -8 -6 -5 -6 6 -1 11 2 17 5 13 3 -3 4 -12 1 -19z m-29 -11 c3 -16
1 -17 -17 -5 -25 16 -27 31 -4 26 10 -2 19 -11 21 -21z m-33 -37 c-3 -5 -11
-10 -16 -10 -6 0 -7 5 -4 10 3 6 11 10 16 10 6 0 7 -4 4 -10z m-565 -87 c13
-13 12 -14 -10 -8 -45 14 -70 24 -70 31 0 11 65 -8 80 -23z m560 -69 c0 -8 -7
-14 -16 -14 -13 0 -14 3 -5 13 6 8 7 18 3 22 -4 5 -1 5 6 1 6 -4 12 -14 12
-22z m-188 -34 c12 -11 16 -20 10 -20 -7 0 -12 -9 -12 -20 0 -15 -7 -20 -25
-20 -31 0 -31 3 -2 31 15 15 18 23 10 26 -13 5 -18 23 -8 23 3 0 15 -9 27 -20z
m-88 -15 c-4 -8 -8 -15 -10 -15 -2 0 -4 7 -4 15 0 8 4 15 10 15 5 0 7 -7 4
-15z m36 6 c0 -6 -4 -13 -10 -16 -5 -3 -10 1 -10 9 0 9 5 16 10 16 6 0 10 -4
10 -9z m67 -63 c-3 -8 -6 -5 -6 6 -1 11 2 17 5 13 3 -3 4 -12 1 -19z m-1217
-228 c0 -5 -2 -10 -4 -10 -3 0 -8 5 -11 10 -3 6 -1 10 4 10 6 0 11 -4 11 -10z
m60 -9 c0 -5 -9 -7 -20 -4 -11 3 -20 7 -20 9 0 2 9 4 20 4 11 0 20 -4 20 -9z
m-45 -101 c3 -5 1 -10 -4 -10 -6 0 -11 5 -11 10 0 6 2 10 4 10 3 0 8 -4 11
-10z m35 -10 c0 -5 -5 -10 -11 -10 -5 0 -7 5 -4 10 3 6 8 10 11 10 2 0 4 -4 4
-10z m-20 -32 c0 -13 -23 -5 -28 10 -2 7 2 10 12 6 9 -3 16 -11 16 -16z m68
-20 c14 -14 16 -38 4 -38 -5 0 -14 11 -20 25 -12 26 -4 33 16 13z m814 -586
c-20 -20 -42 -13 -42 13 0 5 4 4 9 -4 7 -11 12 -10 27 8 11 12 20 17 22 12 2
-5 -6 -19 -16 -29z m156 -14 c-3 -7 -13 -15 -24 -17 -16 -3 -17 -1 -5 13 16
19 34 21 29 4z m-328 -62 c0 -2 -8 -10 -17 -17 -16 -13 -17 -12 -4 4 13 16 21
21 21 13z"/>
<path d="M3398 8973 c7 -3 16 -2 19 1 4 3 -2 6 -13 5 -11 0 -14 -3 -6 -6z"/>
<path d="M3438 8963 c6 -2 18 -2 25 0 6 3 1 5 -13 5 -14 0 -19 -2 -12 -5z"/>
<path d="M4171 8928 c-1 -29 12 -43 31 -32 8 5 7 10 -4 18 -8 6 -17 18 -21 26
-3 9 -6 4 -6 -12z"/>
<path d="M3194 8700 c-11 -4 -44 -30 -74 -57 -47 -44 -54 -55 -60 -101 -3 -29
-3 -52 1 -52 5 0 5 -8 2 -17 -5 -13 -3 -15 13 -9 10 5 37 12 59 17 22 5 58 15
80 23 70 26 230 16 188 -12 -7 -4 -48 -14 -90 -21 -43 -7 -90 -19 -105 -27
-44 -23 -79 -66 -76 -94 1 -14 -1 -31 -6 -38 -9 -15 7 -21 59 -21 46 1 82 -5
91 -13 3 -4 12 -4 20 -1 8 3 14 0 14 -6 0 -8 12 -10 38 -6 26 5 33 4 23 -4
-12 -8 -10 -11 12 -16 15 -4 27 -11 27 -15 0 -8 -50 -20 -87 -20 -14 0 -21 -4
-18 -10 3 -5 0 -10 -7 -10 -10 0 -10 -2 1 -9 31 -20 188 10 260 48 l35 18 -25
14 -24 13 35 6 c27 4 35 10 35 25 0 15 6 19 22 17 17 -2 27 6 43 38 l21 41
-27 46 c-14 25 -21 43 -15 39 6 -4 11 -3 11 3 0 6 6 8 13 5 8 -3 17 11 25 41
13 50 16 82 5 72 -3 -4 -12 1 -19 11 -13 16 -13 16 -14 0 0 -22 -20 -24 -20
-3 0 9 -6 12 -15 9 -8 -4 -15 -1 -15 5 0 6 -5 11 -12 11 -6 0 -19 7 -28 15
-16 14 -17 14 -12 -11 l5 -27 -36 27 c-19 15 -38 35 -42 44 -3 9 -9 12 -13 7
-4 -6 -29 -11 -57 -11 -83 -2 -185 -16 -191 -26 -4 -5 -12 1 -18 14 -9 16 -9
25 -2 30 15 10 -3 9 -30 -2z m211 -260 c3 -5 3 -11 -2 -11 -4 -1 -21 -3 -38
-5 -46 -5 -127 -34 -157 -56 -34 -23 -37 -10 -5 20 51 48 183 82 202 52z m-40
-60 c3 -5 1 -10 -4 -10 -6 0 -11 5 -11 10 0 6 2 10 4 10 3 0 8 -4 11 -10z
m-48 -47 c6 -21 10 -39 9 -41 -2 -1 -22 5 -45 14 l-42 17 22 23 c31 33 42 30
56 -13z m192 8 c21 -13 5 -41 -23 -41 -24 0 -25 2 -14 25 12 27 16 29 37 16z"/>
<path d="M3865 8490 c3 -5 8 -10 11 -10 2 0 4 5 4 10 0 6 -5 10 -11 10 -5 0
-7 -4 -4 -10z"/>
<path d="M2642 8198 c-28 -55 -41 -233 -20 -271 12 -22 12 -21 19 8 4 17 7 47
8 68 0 21 12 55 25 76 41 65 58 112 45 127 -18 22 -64 17 -77 -8z"/>
<path d="M4625 7880 c3 -5 8 -10 11 -10 2 0 4 5 4 10 0 6 -5 10 -11 10 -5 0
-7 -4 -4 -10z"/>
<path d="M4788 7683 c-9 -10 -21 -29 -28 -42 -11 -21 -10 -26 6 -38 26 -19 28
-17 42 27 21 67 12 90 -20 53z"/>
<path d="M3563 7670 c-11 -16 -10 -18 2 -14 8 4 15 12 15 20 0 19 -3 18 -17
-6z"/>
<path d="M2865 7580 c-10 -11 -13 -20 -8 -20 13 0 38 29 31 35 -3 3 -13 -4
-23 -15z"/>
<path d="M4697 7513 c-4 -3 -7 -15 -7 -25 0 -19 34 -26 44 -9 7 11 -28 43 -37
34z"/>
<path d="M3681 7356 c-10 -11 -7 -18 16 -34 49 -34 92 -53 126 -54 46 -1 169
31 196 52 l24 17 -64 7 c-35 3 -91 8 -124 11 -33 3 -83 8 -111 11 -37 3 -54 1
-63 -10z"/>
<path d="M4171 7294 c0 -11 3 -14 6 -6 3 7 2 16 -1 19 -3 4 -6 -2 -5 -13z"/>
<path d="M3046 7283 c-9 -10 -7 -53 3 -53 11 0 21 49 11 55 -4 2 -10 2 -14 -2z"/>
<path d="M3019 6658 c-11 -13 -34 -49 -51 -82 -29 -58 -148 -217 -216 -288
-29 -31 -56 -44 -146 -74 -61 -20 -194 -74 -296 -119 -121 -54 -218 -90 -280
-104 -223 -52 -645 -185 -762 -240 -35 -16 -78 -32 -96 -36 -39 -8 -87 -46
-107 -86 -8 -15 -22 -61 -30 -101 -9 -40 -38 -126 -66 -190 -27 -65 -67 -184
-88 -265 -22 -81 -51 -191 -65 -243 -40 -145 -56 -283 -66 -540 -5 -129 -14
-294 -20 -366 -8 -94 -8 -269 0 -620 11 -542 38 -900 84 -1119 74 -354 94
-424 191 -655 41 -97 58 -124 105 -172 62 -62 97 -76 245 -101 44 -7 79 -18
78 -23 0 -5 -6 -43 -13 -84 -6 -41 -18 -91 -25 -110 -8 -19 -31 -143 -50 -275
-29 -192 -95 -567 -131 -738 l-6 -27 1291 0 c710 0 1291 3 1291 6 0 25 128
708 156 836 l15 67 55 11 c29 6 58 8 64 5 6 -4 17 -1 25 5 25 21 43 -5 74
-109 75 -244 94 -320 143 -562 l53 -259 983 0 982 0 -5 22 c-6 26 -74 405
-130 723 -20 116 -45 248 -56 295 -11 47 -21 96 -22 110 l-2 25 180 6 c220 8
256 18 336 98 64 64 98 143 142 321 52 214 67 314 92 611 22 279 24 326 15
579 -17 523 -122 1605 -181 1855 -10 44 -27 136 -39 205 -28 170 -90 372 -156
511 -39 82 -58 137 -65 185 -5 37 -19 82 -30 100 -25 42 -83 78 -111 71 -12
-4 -32 2 -47 12 -63 44 -332 133 -636 212 -233 60 -265 70 -502 163 -123 47
-246 92 -275 98 -48 10 -63 21 -149 107 -77 78 -104 113 -142 187 -44 85 -109
165 -123 151 -3 -3 4 -20 16 -37 68 -96 66 -298 -5 -615 -18 -82 -41 -213 -50
-290 -9 -77 -18 -154 -20 -172 -8 -63 -26 -159 -45 -228 -19 -73 -55 -286
-115 -685 -20 -129 -47 -309 -61 -400 -31 -202 -64 -510 -98 -895 -14 -159
-28 -318 -32 -351 l-5 -61 -46 -7 c-62 -8 -111 -8 -117 2 -2 4 -14 75 -26 157
-12 83 -45 294 -75 470 -29 176 -55 334 -58 350 -24 143 -214 988 -272 1205
-18 69 -59 222 -90 340 -66 247 -123 419 -188 572 -55 129 -99 264 -122 373
-19 93 -13 174 16 232 33 65 21 95 -22 51z m1875 -3667 c12 -12 28 -21 34 -21
7 0 12 -4 12 -8 0 -5 31 -23 70 -41 38 -17 84 -45 102 -61 30 -28 59 -33 87
-15 6 3 19 -3 31 -15 15 -15 17 -20 5 -20 -22 0 -18 -13 9 -30 32 -20 91 -99
100 -133 3 -15 11 -27 16 -27 18 0 10 -19 -11 -25 -15 -5 -19 -13 -15 -27 7
-29 -4 -79 -16 -72 -6 4 -8 -6 -6 -22 2 -24 -2 -31 -32 -46 -49 -23 -145 -39
-212 -34 -62 4 -78 10 -78 31 0 42 -66 37 -339 -27 -89 -21 -94 -21 -125 -4
-31 17 -56 61 -56 100 0 9 -13 56 -29 104 -16 48 -39 121 -50 162 -11 41 -26
93 -34 115 -14 36 -13 41 2 51 15 10 168 48 233 58 15 3 31 7 35 9 5 3 30 8
58 12 27 3 52 9 55 12 3 3 33 3 68 0 46 -3 70 -11 86 -26z m-2734 -171 c0 -32
-14 -40 -24 -14 -10 27 -7 44 9 44 10 0 15 -10 15 -30z"/>
<path d="M4080 6370 c-13 -8 -12 -10 3 -10 9 0 17 5 17 10 0 12 -1 12 -20 0z"/>
<path d="M3170 6315 c82 -120 394 -462 354 -389 -9 17 -66 82 -126 145 -61 63
-142 153 -180 202 -77 95 -97 113 -48 42z"/>
<path d="M3792 5637 c-7 -8 -6 -17 2 -29 12 -17 14 -17 30 1 17 18 17 20 -2
30 -15 8 -23 7 -30 -2z"/>
</g>
</svg>
