<?xml version="1.0" encoding="UTF-8"?>
<svg version="1.1" xmlns="http://www.w3.org/2000/svg" width="311" height="75">
<path d="M0 0 C2.10546875 1.59375 2.10546875 1.59375 3.10546875 3.59375 C3.51148379 11.98472744 3.51148379 11.98472744 1.10546875 15.59375 C2.09546875 15.59375 3.08546875 15.59375 4.10546875 15.59375 C3.77546875 17.57375 3.44546875 19.55375 3.10546875 21.59375 C5.41546875 21.92375 7.72546875 22.25375 10.10546875 22.59375 C9.54557572 26.58387371 8.34877107 29.1192552 6.04296875 32.40625 C5.49511719 33.19644531 4.94726562 33.98664062 4.3828125 34.80078125 C3.96128906 35.39246094 3.53976563 35.98414063 3.10546875 36.59375 C9.76897068 32.65925544 9.76897068 32.65925544 14.79296875 26.90625 C17.07311973 23.41259494 19.03919059 21.92311017 23.10546875 20.59375 C27.49997508 20.04152 31.01981548 20.1727824 35.16796875 21.78125 C37.10546875 23.59375 37.10546875 23.59375 37.66796875 25.96875 C36.94617409 29.33712506 35.37572782 31.04830801 33.10546875 33.59375 C32.61046875 34.58375 32.61046875 34.58375 32.10546875 35.59375 C32.70875 35.18382812 33.31203125 34.77390625 33.93359375 34.3515625 C34.7328125 33.81273437 35.53203125 33.27390625 36.35546875 32.71875 C37.144375 32.18507812 37.93328125 31.65140625 38.74609375 31.1015625 C41.10546875 29.59375 41.10546875 29.59375 43.32421875 28.625 C45.54671575 27.5978488 45.54671575 27.5978488 46.35546875 23.96875 C46.72671875 22.298125 46.72671875 22.298125 47.10546875 20.59375 C48.42546875 20.59375 49.74546875 20.59375 51.10546875 20.59375 C51.60046875 22.07875 51.60046875 22.07875 52.10546875 23.59375 C52.62109375 23.09875 53.13671875 22.60375 53.66796875 22.09375 C56.91226892 20.09725759 59.36764209 20.37810615 63.10546875 20.59375 C63.91796875 22.59375 63.91796875 22.59375 64.10546875 25.59375 C62.69379303 28.44343868 60.95662114 31.01238524 59.10546875 33.59375 C65.35994612 29.63702602 65.35994612 29.63702602 70.85546875 24.71875 C73.10546875 22.59375 73.10546875 22.59375 75.91796875 22.28125 C76.63984375 22.384375 77.36171875 22.4875 78.10546875 22.59375 C77.16126448 25.02170383 76.22905804 27.36716964 74.98046875 29.65625 C73.8310776 31.84701058 73.8310776 31.84701058 74.10546875 35.59375 C83.74962804 29.36577792 90.36875877 20.40167351 96.10546875 10.59375 C95.11546875 9.60375 95.11546875 9.60375 94.10546875 8.59375 C98.5862107 5.23319354 101.71097582 5.31945375 107.10546875 5.59375 C106.64585856 10.34305534 104.78158593 12.37774016 101.48046875 15.71875 C95.94713077 21.58551724 89.6441486 28.4064535 88.10546875 36.59375 C89.71290155 35.66186119 91.31629674 34.72300565 92.91796875 33.78125 C93.81128906 33.25917969 94.70460937 32.73710938 95.625 32.19921875 C98.09393984 30.73476991 98.09393984 30.73476991 99.7421875 28.89453125 C101.10546875 27.59375 101.10546875 27.59375 104.10546875 27.59375 C101.91404626 32.77973411 97.94622534 35.88202987 93.10546875 38.59375 C89.85366477 39.15693894 87.42781834 38.96289995 84.10546875 38.59375 C83.11546875 36.11875 83.11546875 36.11875 82.10546875 33.59375 C81.13609375 34.41875 80.16671875 35.24375 79.16796875 36.09375 C74.90293883 39.19638447 71.21023974 39.114645 66.10546875 38.59375 C65.11546875 36.61375 65.11546875 36.61375 64.10546875 34.59375 C63.23921875 35.25375 62.37296875 35.91375 61.48046875 36.59375 C57.88574064 38.72395925 56.18893955 39.06857219 52.10546875 38.59375 C51.77546875 38.26375 51.44546875 37.93375 51.10546875 37.59375 C51.43554307 31.98248664 52.81347047 28.9476832 56.10546875 24.59375 C52.99548641 28.10984687 50.10121758 31.54780724 47.60546875 35.53125 C45.10546875 38.59375 45.10546875 38.59375 41.91796875 39.15625 C39.10546875 38.59375 39.10546875 38.59375 37.10546875 36.59375 C36.11546875 37.25375 35.12546875 37.91375 34.10546875 38.59375 C30.54296875 38.90625 30.54296875 38.90625 27.10546875 38.59375 C26.44546875 37.60375 25.78546875 36.61375 25.10546875 35.59375 C24.61046875 36.08875 24.11546875 36.58375 23.60546875 37.09375 C19.89105968 39.32239544 17.40458272 39.00979329 13.10546875 38.59375 C12.44546875 37.60375 11.78546875 36.61375 11.10546875 35.59375 C10.46609375 36.08875 9.82671875 36.58375 9.16796875 37.09375 C5.12458385 39.07418342 1.54494633 39.07071867 -2.89453125 38.59375 C-3.89453125 37.59375 -3.89453125 37.59375 -4.26953125 35.53125 C-3.71408856 31.18028228 -1.36171626 28.14473414 1.10546875 24.59375 C0.34234375 25.356875 -0.42078125 26.12 -1.20703125 26.90625 C-2.09390625 27.793125 -2.98078125 28.68 -3.89453125 29.59375 C-4.43078125 30.191875 -4.96703125 30.79 -5.51953125 31.40625 C-6.89453125 32.59375 -6.89453125 32.59375 -9.89453125 32.59375 C-8.89453125 29.59375 -8.89453125 29.59375 -6.33203125 27.15625 C-3.43505541 24.70015106 -3.43505541 24.70015106 -3.89453125 20.59375 C-4.48878906 20.91988281 -5.08304688 21.24601562 -5.6953125 21.58203125 C-13.11899034 25.49591428 -20.6458138 28.65937716 -29.14453125 28.59375 C-33.80281485 29.83595896 -34.32114048 31.16836466 -36.83203125 35.15625 C-37.39792969 36.16816406 -37.96382812 37.18007813 -38.546875 38.22265625 C-38.99160156 39.00511719 -39.43632813 39.78757813 -39.89453125 40.59375 C-40.22453125 40.59375 -40.55453125 40.59375 -40.89453125 40.59375 C-41.21016307 35.33321963 -40.56044062 32.14801184 -37.89453125 27.59375 C-38.88453125 26.93375 -39.87453125 26.27375 -40.89453125 25.59375 C-41.08203125 22.46875 -41.08203125 22.46875 -40.89453125 19.59375 C-40.23453125 19.59375 -39.57453125 19.59375 -38.89453125 19.59375 C-38.73984375 20.5528125 -38.73984375 20.5528125 -38.58203125 21.53125 C-38.35515625 22.211875 -38.12828125 22.8925 -37.89453125 23.59375 C-36.90453125 23.92375 -35.91453125 24.25375 -34.89453125 24.59375 C-34.37503906 23.86929688 -33.85554688 23.14484375 -33.3203125 22.3984375 C-31.1945093 19.45139055 -29.04965069 16.51941494 -26.89453125 13.59375 C-26.39824219 12.91183594 -25.90195312 12.22992188 -25.390625 11.52734375 C-24.14453125 9.90625 -24.14453125 9.90625 -21.89453125 7.59375 C-20.57453125 7.59375 -19.25453125 7.59375 -17.89453125 7.59375 C-19.63976063 11.64589179 -22.31734695 14.89978961 -25.01953125 18.34375 C-25.48746094 18.94574219 -25.95539062 19.54773438 -26.4375 20.16796875 C-27.58678132 21.64561616 -28.7402436 23.12001005 -29.89453125 24.59375 C-20.98509052 24.14827796 -12.45197271 21.53770892 -5.20703125 16.15625 C-2.5266855 13.18613715 -1.80774817 11.58577151 -1.89453125 7.59375 C-3.3827386 4.89637419 -4.83718085 4.61120447 -7.76953125 3.71875 C-16.47176062 2.8356485 -25.31798418 6.3589093 -32.7734375 10.5078125 C-34.82096275 11.5560851 -36.64909766 12.13549825 -38.89453125 12.59375 C-39.22453125 10.94375 -39.55453125 9.29375 -39.89453125 7.59375 C-36.10947556 4.20674032 -32.38481795 2.33400659 -27.58203125 0.84375 C-26.89069092 0.62912109 -26.19935059 0.41449219 -25.48706055 0.19335938 C-17.63378091 -2.04055694 -7.54059983 -3.66344931 0 0 Z M22.98046875 27.5703125 C20.3605481 30.39764353 19.29466404 32.95183941 18.10546875 36.59375 C23.37394363 35.15689321 26.69824005 31.68593704 30.10546875 27.59375 C31.55616839 24.86206665 31.55616839 24.86206665 32.10546875 22.59375 C27.7780501 22.59375 26.10258071 24.75811607 22.98046875 27.5703125 Z " fill="#000000" transform="translate(40.89453125,16.40625)"/>
<path d="M0 0 C0.36285817 3.66539338 0.49883224 5.38194999 -1.86328125 8.30859375 C-2.67152344 9.01113281 -3.47976562 9.71367187 -4.3125 10.4375 C-8.28562181 14.12325766 -10.36017792 16.86189081 -12 22 C-12.99 21.67 -13.98 21.34 -15 21 C-15.4589303 15.26337126 -14.57654928 12.49623338 -11 8 C-9.25 6.125 -9.25 6.125 -8 5 C-12.30416262 6.29061302 -15.88546547 7.92098316 -19.6875 10.3125 C-21.08548828 11.17294922 -21.08548828 11.17294922 -22.51171875 12.05078125 C-25.16635321 14.13031436 -26.4679241 16.0229562 -28 19 C-27.22914063 19.38671875 -26.45828125 19.7734375 -25.6640625 20.171875 C-24.66117188 20.69265625 -23.65828125 21.2134375 -22.625 21.75 C-21.62726563 22.26046875 -20.62953125 22.7709375 -19.6015625 23.296875 C-16.93420875 25.04307055 -16.06347095 26.05303231 -15 29 C-14.2575 28.05125 -13.515 27.1025 -12.75 26.125 C-10.16773646 22.82544103 -7.79271159 21.25068812 -3.59765625 20.6640625 C3.30882076 20.55764529 3.30882076 20.55764529 7.125 23 C8.053125 23.99 8.053125 23.99 9 25 C8.38545304 28.99455527 6.29353263 31.74466336 4 35 C9.66623968 33.62636614 12.6914132 29.50652341 16 25 C17.15254416 23.05774966 18.27646234 21.09829913 19.375 19.125 C23.65126013 11.52597017 29.01559441 3.96717331 37 0 C39.78795091 -0.41522673 42.15458807 -0.18969413 45 0 C46 1 46 1 46.3125 3.75 C45.91152735 7.9201156 44.99690758 9.07618773 42 12 C39.07259827 14.12123258 36.0695584 16.09136433 33 18 C33.99 18.99 33.99 18.99 35 20 C35 23.375 35 23.375 34 27 C30.54070756 29.98757074 27.53667664 31.46627334 23 32 C26.68564084 34.45579697 26.68564084 34.45579697 31 35 C31.2784375 33.7315625 31.2784375 33.7315625 31.5625 32.4375 C33.20725026 28.50440156 35.19018411 26.53908502 38.265625 23.6796875 C40.19820615 21.90566081 40.19820615 21.90566081 42.125 19.0625 C44 17 44 17 46.75 16.6875 C47.4925 16.790625 48.235 16.89375 49 17 C49.495 18.485 49.495 18.485 50 20 C51.134375 19.979375 52.26875 19.95875 53.4375 19.9375 C57 20 57 20 58 21 C58.40560735 25.13719492 58.27496599 27.4806198 56.3125 31.1875 C53.59074123 34.49774716 50.84795498 37.07602251 47 39 C43.5 39.25 43.5 39.25 40 39 C39.34 38.01 38.68 37.02 38 36 C36.70043409 38.036994 35.4103739 40.07907615 34.125 42.125 C33.76019531 42.69476563 33.39539063 43.26453125 33.01953125 43.8515625 C30.7613034 47.46472705 29.1813321 50.90886041 28 55 C26.515 54.505 26.515 54.505 25 54 C24.4673486 47.741346 26.18150494 43.54891215 29 38 C27.948125 38.04125 26.89625 38.0825 25.8125 38.125 C22.25989827 38.00852125 20.15133359 37.52791932 17 36 C17 38.64 17 41.28 17 44 C15.0625 43.4375 15.0625 43.4375 13 42 C12.25 38.375 12.25 38.375 12 35 C10.989375 35.66 9.97875 36.32 8.9375 37 C5.19947049 39.14252911 2.33417246 39.50990264 -2 39 C-2.66 38.34 -3.32 37.68 -4 37 C-4.7734375 37.495 -4.7734375 37.495 -5.5625 38 C-8.78026512 39.32010877 -11.5570528 39.13242105 -15 39 C-15.66 37.35 -16.32 35.7 -17 34 C-18.051875 34.928125 -18.051875 34.928125 -19.125 35.875 C-24.31185765 39.70876435 -29.143302 40.29311982 -35.5 40.3125 C-36.7684375 40.32925781 -38.036875 40.34601562 -39.34375 40.36328125 C-44.19362724 39.88140242 -47.54889189 38.45110811 -51 35 C-51 34.01 -51 33.02 -51 32 C-50.24976563 32.22816406 -49.49953125 32.45632812 -48.7265625 32.69140625 C-40.287134 35.06167395 -32.80851606 36.38917234 -24.875 31.9375 C-23.92625 31.298125 -22.9775 30.65875 -22 30 C-22 28.68 -22 27.36 -22 26 C-23.04800781 25.51080078 -23.04800781 25.51080078 -24.1171875 25.01171875 C-25.02726562 24.57472656 -25.93734375 24.13773438 -26.875 23.6875 C-27.77992188 23.25824219 -28.68484375 22.82898438 -29.6171875 22.38671875 C-32 21 -32 21 -34 18 C-33.78596067 13.07709552 -32.50714869 10.42160847 -29 7 C-21.10529101 1.54276548 -9.700445 -4.8502225 0 0 Z M33 11 C31.18194212 12.92653389 29.60869513 14.88858764 28 17 C33.41028673 15.3092854 39.39988925 11.83678941 42.23828125 6.8046875 C42.48964844 6.20914062 42.74101562 5.61359375 43 5 C39.08111621 5 35.87870704 8.55612634 33 11 Z M-5 27 C-6.94433847 29.17134246 -8.76399889 31.34966927 -10 34 C-9.67 34.99 -9.34 35.98 -9 37 C-2.71654539 31.78570179 -2.71654539 31.78570179 3 26 C3 25.01 3 24.02 3 23 C-0.28967877 23 -2.56977247 24.96097983 -5 27 Z M23.515625 24.3125 C23.09796875 24.869375 22.6803125 25.42625 22.25 26 C21.5075 26.99 20.765 27.98 20 29 C24.23253528 28.57265562 24.23253528 28.57265562 27.875 26.5625 C29.19476824 25.05038276 29.19476824 25.05038276 29 23 C25.1691947 22.55839752 25.1691947 22.55839752 23.515625 24.3125 Z M43 28 C41.14858158 30.60881687 40.93795763 31.54502262 41.375 34.75 C41.58125 35.4925 41.7875 36.235 42 37 C46.42117715 35.64908476 48.443343 33.8349855 51 30 C51.87822312 27.91466367 51.87822312 27.91466367 52 26 C51.67 25.34 51.34 24.68 51 24 C47.02621451 24 45.87350205 25.34753657 43 28 Z " fill="#000000" transform="translate(207,16)"/>
<path d="M0 0 C1.07445646 10.23291871 1.07445646 10.23291871 -1.41796875 14.33203125 C-2.63787317 15.65077654 -3.89257818 16.93816823 -5.1796875 18.19140625 C-8.78976226 21.77824018 -10.90091799 26.04335563 -12 31 C-11.30132812 30.57847656 -10.60265625 30.15695313 -9.8828125 29.72265625 C-8.97273438 29.17480469 -8.06265625 28.62695312 -7.125 28.0625 C-6.22007812 27.51722656 -5.31515625 26.97195312 -4.3828125 26.41015625 C-2.94798364 25.56101983 -1.49124552 24.74562276 0 24 C-0.23933561 27.2310308 -1.27353938 28.30089331 -3.5 30.75 C-7.3672822 33.83439337 -11.27021642 33.47297836 -16 33 C-16.66 31.35 -17.32 29.7 -18 28 C-18.49628906 28.3609375 -18.99257813 28.721875 -19.50390625 29.09375 C-24.12193399 32.24837996 -27.21926054 33.80930352 -33 33 C-33.66 32.34 -34.32 31.68 -35 31 C-35.515625 31.33 -36.03125 31.66 -36.5625 32 C-39.80521778 33.33034575 -42.52984772 33.19642371 -46 33 C-47 32 -47 32 -47.4375 28.375 C-47.39702324 23.87398476 -45.67703776 21.67456121 -42.703125 18.4453125 C-38.49056433 14.87043304 -34.79736666 14.58460315 -29.41796875 14.6640625 C-26.06797125 15.12949026 -24.27929904 16.56874769 -22 19 C-22.61454696 22.99455527 -24.70646737 25.74466336 -27 29 C-16.45213219 25.80367642 -10.78079552 15.63797031 -5 7 C-4.67 6.34 -4.34 5.68 -4 5 C-4.66 4.34 -5.32 3.68 -6 3 C-1.125 0 -1.125 0 0 0 Z M-36 21 C-37.94433847 23.17134246 -39.76399889 25.34966927 -41 28 C-40.67 28.99 -40.34 29.98 -40 31 C-33.71654539 25.78570179 -33.71654539 25.78570179 -28 20 C-28 19.01 -28 18.02 -28 17 C-31.28967877 17 -33.56977247 18.96097983 -36 21 Z " fill="#000000" transform="translate(311,22)"/>
<path d="M0 0 C1.98 0 3.96 0 6 0 C5.125 3.875 5.125 3.875 4 5 C2.33382885 5.04063832 0.66611905 5.042721 -1 5 C-0.67 3.35 -0.34 1.7 0 0 Z " fill="#000000" transform="translate(119,32)"/>
</svg>
